<?xml version="1.0" encoding="utf-8"?>
<!-- Generator: Adobe Illustrator 21.0.2, SVG Export Plug-In . SVG Version: 6.00 Build 0)  -->
<svg version="1.1" id="Capa_1" xmlns="http://www.w3.org/2000/svg" xmlns:xlink="http://www.w3.org/1999/xlink" x="0px" y="0px"
	 width="141.7px" height="141.7px" viewBox="0 0 141.7 141.7" style="enable-background:new 0 0 141.7 141.7;" xml:space="preserve"
	>
<path d="M41.2,0.4c-11.6,0-21,9.4-21,21c0,11.6,9.4,21,21,21s21-9.5,21-21C62.3,9.8,52.8,0.4,41.2,0.4z M100,13.4
	c-5.8,0-11.1,2.4-14.8,6.2c-3.8,3.8-6.2,9.1-6.2,14.8c0,11.6,9.5,21,21,21c11.6,0,21-9.4,21-21C121,22.9,111.5,13.4,100,13.4
	L100,13.4z M35.8,47.7c-19.3,0-35.2,15.6-35.3,35.1l0.2,0.1c12.7,4.3,26,6.2,39.4,6.2h10.1c0.5-13.9,8.6-25.9,20.2-32.1
	c-6.2-5.7-14.5-9.2-23.6-9.2H35.8L35.8,47.7z M94.5,60.8c-19.5,0-35.3,15.8-35.3,35.3v3.6c12.9,1.6,26.6,2.4,40.8,2.4
	c14.1,0,27.8-0.8,40.8-2.4v-3.6c0-19.5-15.9-35.3-35.3-35.3H94.5z"/>
</svg>
